<?xml version="1.0" encoding="utf-8"?>
<!-- Generator: Adobe Illustrator 28.0.0, SVG Export Plug-In . SVG Version: 6.00 Build 0)  -->
<svg version="1.1" id="Layer_1" xmlns="http://www.w3.org/2000/svg" xmlns:xlink="http://www.w3.org/1999/xlink" x="0px" y="0px"
	 viewBox="0 0 32 32" style="enable-background:new 0 0 32 32;" xml:space="preserve">
<style type="text/css">
	.st0{fill:#58211D;}
	.st1{fill:#FCFBFB;}
</style>
<g>
	<path class="st0" d="M20.8,30C14.5,30,8.3,30,2,30c0-9.3,0-18.7,0-28c9.3,0,18.7,0,28,0c0,9.3,0,18.7,0,28C27,30,23.9,30,20.8,30
		 M16,23.6c0,0,0,0.1,0,0.2c1,1.5,1.9,2.9,2.9,4.4c0.2-0.1,0.4-0.2,0.5-0.3c3.6-2,5.9-5,6.7-9.1c0.6-3.1,1.2-6.2,1.7-9.3
		c0.1-0.3,0.1-0.7,0.1-1.1C24.9,8.9,22,9.5,19,10c0.3-0.6,0.5-1.2,0.7-1.7c0.5-1.3-0.1-2.6-1.4-3.1c-1.1-0.4-2.3-0.8-3.4-1.1
		C14.8,4,14.6,4,14.4,3.9c1.6,1.8,2.1,3.9,1.5,6.2c-0.1,0.3-0.3,0.5-0.6,0.6c-1,0.2-2,0.3-3,0.6c-0.7,0.1-1.3,0.1-1.9-0.2
		c-1-0.4-2.1-0.7-3.2-1.1C7.1,10,7,10,6.7,9.9c1,1.5,2,2.9,2.9,4.4c0.1,0.1,0.3,0.1,0.5,0.1c0.8-0.2,1.6-0.4,2.4-0.6
		c0.7-0.2,1.5-0.3,2.3-0.5c-0.7,1.9-1.3,3.7-2,5.6c-0.1,0.2-0.2,0.3-0.4,0.5c-2.7,2.7-5.3,5.3-8,8c-0.1,0.1-0.2,0.3-0.4,0.4
		c0.2,0,0.3,0,0.4-0.1c3.2-2,6.4-4.1,9.6-6.2c0.2-0.1,0.3-0.3,0.4-0.5c1.1-2.6,2.2-5.3,3.3-7.9c0.1-0.4,0.3-0.6,0.7-0.6
		c2.1-0.5,4.1-1,6.2-1.5c0.2,0,0.3-0.1,0.5-0.1c-0.4,2.3-0.7,4.6-1.1,6.8c-0.4,2.6-1.5,4.9-3.2,6.9c-0.3,0.4-0.6,0.5-1.1,0.3
		C18.5,24.4,17.3,24,16,23.6z"/>
	<path class="st1" d="M16,23.6c1.2,0.4,2.5,0.8,3.7,1.2c0.5,0.2,0.8,0.1,1.1-0.3c1.7-2,2.8-4.3,3.2-6.9c0.3-2.2,0.7-4.5,1.1-6.8
		c-0.2,0-0.4,0.1-0.5,0.1c-2.1,0.5-4.1,1-6.2,1.5c-0.4,0.1-0.6,0.3-0.7,0.6c-1.1,2.6-2.2,5.3-3.3,7.9c-0.1,0.2-0.2,0.4-0.4,0.5
		c-3.2,2.1-6.4,4.1-9.6,6.2c-0.1,0.1-0.2,0.1-0.4,0.1c0.1-0.1,0.2-0.3,0.4-0.4c2.7-2.7,5.3-5.3,8-8c0.1-0.1,0.3-0.3,0.4-0.5
		c0.6-1.8,1.3-3.6,2-5.6c-0.8,0.2-1.6,0.3-2.3,0.5c-0.8,0.2-1.6,0.4-2.4,0.6c-0.1,0-0.4,0-0.5-0.1c-1-1.4-1.9-2.8-2.9-4.4
		C7,10,7.1,10,7.2,10.1c1.1,0.3,2.1,0.7,3.2,1.1c0.6,0.2,1.2,0.3,1.9,0.2c1-0.2,2-0.4,3-0.6c0.4-0.1,0.5-0.2,0.6-0.6
		c0.6-2.3,0.1-4.3-1.5-6.2c0.2,0,0.4,0,0.5,0.1c1.1,0.4,2.3,0.7,3.4,1.1c1.3,0.5,1.9,1.8,1.4,3.1C19.5,8.8,19.3,9.4,19,10
		c3-0.5,5.9-1.1,8.9-1.6c0,0.4-0.1,0.7-0.1,1.1c-0.6,3.1-1.1,6.2-1.7,9.3c-0.8,4-3.1,7-6.7,9.1c-0.2,0.1-0.3,0.2-0.5,0.3
		C17.9,26.7,16.9,25.2,16,23.6C16,23.7,16,23.7,16,23.6z"/>
</g>
</svg>
