<svg xmlns="http://www.w3.org/2000/svg" viewBox="0 0 32 32">
  <polygon fill="#41CD52" points="28.1,4.8 27,4.8 5.2,4.8 1.1,9 1.1,23.1 1.1,24.3 1.1,27.2 3.9,27.2 5,27.2 26.8,27.2 31,23 31,8.9 31,7.7 31,4.8"/>
  <path fill="#FFFFFF" d="M12.2,8.7c1.9,0,3.3,0.6,4.1,1.7c0.8,1.1,1.2,2.8,1.2,5.2c0,1.5-0.2,2.8-0.5,3.7c-0.3,1-0.8,1.7-1.6,2.2l1.6,2.6L15,25l-1.7-2.8c-0.2,0.1-0.6,0.1-1.2,0.1c-2,0-3.3-0.5-4.1-1.6c-0.8-1.1-1.2-2.8-1.2-5.1c0-2.3,0.4-4.1,1.2-5.2C8.9,9.3,10.3,8.7,12.2,8.7z M22.1,9.5v2.8h2.6v1.8h-2.6v4.2c0,0.8,0.1,1.3,0.2,1.6c0.1,0.3,0.4,0.4,0.9,0.4l1.5-0.1l0.1,1.7c-0.8,0.2-1.5,0.2-1.9,0.2c-1.1,0-1.8-0.2-2.2-0.7c-0.4-0.5-0.6-1.4-0.6-2.8V14h-1.4v-1.8h1.4V9.5H22.1z M12.2,10.5c-1.2,0-2,0.4-2.4,1.2c-0.4,0.8-0.7,2.1-0.7,3.9c0,1.8,0.2,3,0.6,3.8c0.4,0.8,1.3,1.1,2.5,1.1s2-0.4,2.5-1.1c0.4-0.7,0.6-2,0.6-3.8c0-1.8-0.2-3.1-0.7-3.9C14.2,10.9,13.4,10.5,12.2,10.5z"/>
</svg>