<?xml version="1.0" encoding="utf-8"?>
<!-- Generator: Adobe Illustrator 28.0.0, SVG Export Plug-In . SVG Version: 6.00 Build 0)  -->
<svg version="1.1" id="Layer_1" xmlns="http://www.w3.org/2000/svg" xmlns:xlink="http://www.w3.org/1999/xlink" x="0px" y="0px"
	 viewBox="0 0 32 32" style="enable-background:new 0 0 32 32;" xml:space="preserve">
<style type="text/css">
	.st0{fill-rule:evenodd;clip-rule:evenodd;}
	.st1{fill-rule:evenodd;clip-rule:evenodd;fill:#CA9658;}
	.st2{fill-rule:evenodd;clip-rule:evenodd;fill:#DA923E;}
	.st3{fill-rule:evenodd;clip-rule:evenodd;fill:#754C24;}
	.st4{fill-rule:evenodd;clip-rule:evenodd;fill:#603913;}
	.st5{fill-rule:evenodd;clip-rule:evenodd;fill:#F3D4B1;}
</style>
<g id="Layer_x0020_1">
	<g id="_2768215623344">
		<polygon class="st0" points="24.3,11.5 24.3,7.7 22.3,7.7 22.3,11.5 		"/>
		<polygon class="st0" points="22.5,7.8 22.5,5.8 16.8,5.8 16.8,7.8 		"/>
		<polygon class="st0" points="16.9,6 16.9,4 15.1,4 15.1,6 		"/>
		<polygon class="st0" points="15.2,5.8 9.5,5.8 9.5,7.8 15.2,7.8 		"/>
		<polygon class="st0" points="9.7,20.6 9.7,14.9 7.7,14.9 7.7,20.6 		"/>
		<polygon class="st0" points="11.5,26.2 11.5,20.5 9.5,20.5 9.5,26.2 		"/>
		<polygon class="st0" points="9.7,7.7 7.7,7.7 7.7,11.5 9.7,11.5 		"/>
		<polygon class="st0" points="7.8,15.1 7.8,11.4 5.8,11.4 5.8,15.1 		"/>
		<polygon class="st0" points="20.6,26 11.4,26 11.4,28 20.6,28 		"/>
		<polygon class="st0" points="24.3,14.9 22.3,14.9 22.3,20.6 24.3,20.6 		"/>
		<polygon class="st0" points="22.5,20.5 20.5,20.5 20.5,26.2 22.5,26.2 		"/>
		<polygon class="st0" points="24.2,11.4 24.2,15.1 26.2,15.1 26.2,11.4 		"/>
		<polygon class="st1" points="22.5,20.6 22.5,14.9 20.5,14.9 20.5,20.6 		"/>
		<polygon class="st2" points="11.4,26.2 17.1,26.2 17.1,24.4 18.9,24.4 18.9,17.1 20.6,17.1 20.6,15.1 9.5,15.1 9.5,20.6 
			11.4,20.6 		"/>
		<polygon class="st3" points="20.5,15.1 24.3,15.1 24.3,11.3 22.5,11.3 22.5,7.6 16.8,7.6 16.8,9.4 13.1,9.4 13.1,11.3 11.3,11.3 
			11.3,13.4 20.5,13.4 		"/>
		<polygon class="st4" points="9.5,7.7 9.5,11.4 7.7,11.4 7.7,15.1 20.6,15.1 20.6,13.2 11.4,13.2 11.4,11.4 13.2,11.4 13.2,9.5 
			16.9,9.5 16.9,5.8 15.1,5.8 15.1,7.7 		"/>
		<polygon class="st1" points="16.9,26.2 20.6,26.2 20.6,22.5 18.8,22.5 18.8,24.3 16.9,24.3 		"/>
		<polygon class="st5" points="20.6,22.5 20.6,16.9 18.8,16.9 18.8,22.5 		"/>
	</g>
</g>
</svg>
