<?xml version="1.0" encoding="UTF-8"?>
<svg xmlns="http://www.w3.org/2000/svg" version="1.1" viewBox="0 0 4000 800">
  <defs>
    <style>
      .cls-1 {
        fill: none;
        stroke: #f7df1e;
        stroke-linecap: round;
        stroke-linejoin: round;
        stroke-width: 66.7px;
      }

      .cls-2 {
        fill: #f7df1e;
      }
    </style>
  </defs>
  <!-- Generator: Adobe Illustrator 28.7.5, SVG Export Plug-In . SVG Version: 1.2.0 Build 176)  -->
  <g>
    <g id="Layer_1">
      <g id="SVGRepo_iconCarrier">
        <path class="cls-1" d="M560.5,566.7l166.7-166.7-166.7-166.7M227.2,233.3L60.5,400l166.7,166.7M460.5,100l-133.3,600"/>
      </g>
      <g>
        <path class="cls-2" d="M975.8,446.1l104.2-234.4h46.6v355h-48.6v-265.9l2.4,15.6-87.4,200.9h-34.7l-87.4-196,2.4-20.5v265.9h-48.6V211.7h46.6l104.2,234.4Z"/>
        <path class="cls-2" d="M1209.7,261.5v-49.8h49.8v49.8h-49.8ZM1209.7,566.7v-253.4h49.8v253.4h-49.8Z"/>
        <path class="cls-2" d="M1424.8,570.3c-22.5,0-42.8-3.3-61.2-9.9s-34.7-16.5-49.2-29.7l29.5-36.4c13.8,10.4,27.5,18.2,40.9,23.4,13.4,5.2,26.7,7.8,39.9,7.8,19.7,0,34.5-3.1,44.3-9.2,9.8-6.1,14.8-15.3,14.8-27.5s-3.3-16.1-9.9-20-15.2-6.5-25.9-7.7c-10.7-1.2-22.1-2.2-34.3-3.1-10.3-.8-20.4-2.1-30.5-3.8-10.1-1.7-19.3-4.8-27.6-9.3-8.3-4.5-14.9-11.1-19.9-19.9-5-8.8-7.4-20.6-7.4-35.4,0-26.9,8.2-47,24.7-60.3,16.4-13.3,40.9-20,73.5-20s38.3,2.7,55.4,8.1,33.1,13.6,48.1,24.7l-30,36.4c-12.7-8.1-25.2-14.2-37.5-18.3-12.3-4.1-24.3-6.1-36-6.1-16.9,0-29.6,2.9-38.1,8.7-8.5,5.8-12.7,14.4-12.7,26s2.9,13.1,8.8,16.5c5.9,3.3,13.6,5.5,23.2,6.5,9.6,1,19.9,1.9,31,2.7,10.6.7,21.3,1.8,32.1,3.5,10.8,1.7,20.8,5,29.9,9.9,9.1,4.9,16.4,12.1,22,21.7,5.5,9.6,8.3,22.7,8.3,39.3,0,27.2-8.8,47.5-26.5,61-17.7,13.5-44.2,20.3-79.7,20.3Z"/>
        <path class="cls-2" d="M1696.7,570.3c-34.8,0-61.8-9.6-80.9-28.8-19.1-19.2-28.7-46.3-28.7-81.3v-41.7c0-34.7,9.6-61.5,28.7-80.4,19.1-19,46.1-28.4,80.9-28.4s37.8,3.5,53.7,10.5c15.9,7,28.6,17,38.1,30l-35.9,32.2c-7-8.1-15.3-14.4-24.9-18.8-9.6-4.4-19.7-6.6-30.3-6.6-19.2,0-34.1,5.4-44.7,16.1-10.6,10.7-15.9,25.9-15.9,45.4v41.7c0,20,5.3,35.5,15.9,46.4,10.6,10.9,25.5,16.4,44.7,16.4s20.7-2.4,30.3-7.1c9.6-4.7,17.9-11.4,24.9-20l35.9,34.7c-9.4,12.7-22.2,22.5-38.2,29.4-16,6.9-33.9,10.4-53.6,10.4Z"/>
        <path class="cls-2" d="M1947.2,570.3c-35.3,0-62.7-9.8-82-29.5-19.4-19.7-29.1-47.7-29.1-84v-28.6c0-37.8,9.3-67,28-87.6,18.6-20.7,44.9-31,78.7-31s56.6,11.7,74.1,35.2c17.5,23.4,26.2,56.3,26.2,98.6v16.6h-170.9v-40h123.5c-1.5-20.5-6.8-36.5-16-48.1-9.2-11.6-21.5-17.3-37-17.3s-33.3,6.2-43.7,18.6c-10.4,12.4-15.6,29.9-15.6,52.5v32.2c0,21,5.6,37.1,16.7,48.3,11.1,11.2,26.8,16.8,47,16.8s20.1-2,30-6.1c9.9-4.1,18.8-9.8,26.6-17.1l32.7,32.7c-12.5,12-26.6,21.4-42.2,28s-31.3,9.9-47.1,9.9Z"/>
        <path class="cls-2" d="M2161.3,211.7v289.6c0,6,1.3,10.7,4,14.2s6.5,5.1,11.4,5.1h23.4v47.4h-29.3c-18.7,0-33.3-5.9-43.7-17.6-10.4-11.7-15.6-28.2-15.6-49.6V211.7h49.8Z"/>
        <path class="cls-2" d="M2306.1,211.7v289.6c0,6,1.3,10.7,4,14.2s6.5,5.1,11.4,5.1h23.4v47.4h-29.3c-18.7,0-33.3-5.9-43.7-17.6-10.4-11.7-15.6-28.2-15.6-49.6V211.7h49.8Z"/>
        <path class="cls-2" d="M2479.7,570.3c-31.1,0-54.4-6.4-69.9-19.3-15.5-12.9-23.3-32.6-23.3-59.1s7.1-44.1,21.4-56.5c14.2-12.5,35.6-18.7,64.1-18.7h72l3.4,40h-75.2c-12.9,0-22.5,2.9-29.1,8.7-6.5,5.8-9.8,14.6-9.8,26.5s4.3,22.4,12.9,28.6c8.6,6.2,21.6,9.3,38.8,9.3s33-2,42.5-6.1c9.4-4.1,14.2-10.4,14.2-19l5.1,35.6c-4.4,6.8-9.8,12.5-16.4,16.8-6.5,4.4-14,7.7-22.3,9.9-8.4,2.2-17.9,3.3-28.4,3.3ZM2541.7,566.7v-160.6c0-16.6-4.4-29.5-13.3-38.7-8.9-9.2-21.4-13.8-37.7-13.8s-19.7,1.5-29.4,4.5c-9.7,3-18.4,7.4-26,13.1l-36.4-24.9c9.6-11.6,22.3-20.5,38-27,15.7-6.4,33.2-9.6,52.4-9.6,31.7,0,56.3,8.2,73.7,24.7,17.4,16.4,26.1,39.6,26.1,69.6v162.8h-47.4Z"/>
        <path class="cls-2" d="M2664.7,566.7v-253.4h49.8v253.4h-49.8ZM2818.6,566.7v-153.6c0-17.9-4.6-31.7-13.8-41.5-9.2-9.8-22.3-14.6-39.2-14.6s-28.9,4.3-37.7,12.9c-8.9,8.6-13.3,20.8-13.3,36.4l-5.1-48.8c7.8-15.3,18-27.1,30.6-35.4,12.6-8.3,26.6-12.5,41.9-12.5,27.5,0,48.8,9,63.8,27,15.1,18,22.6,43.4,22.6,76.3v153.8h-49.8Z"/>
        <path class="cls-2" d="M3047.8,570.3c-35.3,0-62.7-9.8-82-29.5-19.4-19.7-29.1-47.7-29.1-84v-28.6c0-37.8,9.3-67,28-87.6,18.6-20.7,44.9-31,78.7-31s56.6,11.7,74.1,35.2c17.5,23.4,26.2,56.3,26.2,98.6v16.6h-170.9v-40h123.5c-1.5-20.5-6.8-36.5-16-48.1-9.2-11.6-21.5-17.3-37-17.3s-33.3,6.2-43.7,18.6c-10.4,12.4-15.6,29.9-15.6,52.5v32.2c0,21,5.6,37.1,16.7,48.3,11.1,11.2,26.8,16.8,47,16.8s20.1-2,30-6.1c9.9-4.1,18.8-9.8,26.6-17.1l32.7,32.7c-12.5,12-26.6,21.4-42.2,28s-31.3,9.9-47.1,9.9Z"/>
        <path class="cls-2" d="M3309.3,570.3c-33.2,0-58.9-9.6-77.1-28.9-18.2-19.3-27.3-46.4-27.3-81.4v-41.3c0-34.7,9.1-61.5,27.3-80.6,18.2-19,43.9-28.6,77.1-28.6s58.9,9.5,77.1,28.6c18.2,19,27.3,45.9,27.3,80.6v42c0,34.8-9.1,61.8-27.3,80.9-18.2,19.1-43.9,28.7-77.1,28.7ZM3309.3,523c17.4,0,30.9-5.5,40.4-16.4,9.5-10.9,14.3-26.2,14.3-45.9v-42c0-19.7-4.8-34.9-14.3-45.7s-23-16.1-40.4-16.1-30.7,5.4-40.3,16.1c-9.6,10.7-14.4,26-14.4,45.7v42c0,19.7,4.8,35,14.4,45.9,9.6,10.9,23,16.4,40.3,16.4Z"/>
        <path class="cls-2" d="M3528.3,313.2v154.1c0,17.7,4.5,31.5,13.5,41.1,9,9.7,21.8,14.5,38.2,14.5s29.1-4.4,38-13.1c8.9-8.7,13.3-21,13.3-36.7l3.4,53c-4.6,11.4-12.5,21.6-23.9,30.6-11.4,9-26.3,13.5-44.7,13.5-28,0-49.6-9-64.8-27-15.2-18-22.8-43.3-22.8-76v-154.1h49.8ZM3631.3,566.7v-253.4h49.6v253.4h-49.6Z"/>
        <path class="cls-2" d="M3846.1,570.3c-22.5,0-42.8-3.3-61.2-9.9s-34.7-16.5-49.2-29.7l29.5-36.4c13.8,10.4,27.5,18.2,40.9,23.4,13.4,5.2,26.7,7.8,39.9,7.8,19.7,0,34.5-3.1,44.3-9.2,9.8-6.1,14.8-15.3,14.8-27.5s-3.3-16.1-9.9-20-15.2-6.5-25.9-7.7c-10.7-1.2-22.1-2.2-34.3-3.1-10.3-.8-20.4-2.1-30.5-3.8-10.1-1.7-19.3-4.8-27.6-9.3-8.3-4.5-14.9-11.1-19.9-19.9-5-8.8-7.4-20.6-7.4-35.4,0-26.9,8.2-47,24.7-60.3,16.4-13.3,40.9-20,73.5-20s38.3,2.7,55.4,8.1,33.1,13.6,48.1,24.7l-30,36.4c-12.7-8.1-25.2-14.2-37.5-18.3-12.3-4.1-24.3-6.1-36-6.1-16.9,0-29.6,2.9-38.1,8.7-8.5,5.8-12.7,14.4-12.7,26s2.9,13.1,8.8,16.5c5.9,3.3,13.6,5.5,23.2,6.5,9.6,1,19.9,1.9,31,2.7,10.6.7,21.3,1.8,32.1,3.5,10.8,1.7,20.8,5,29.9,9.9,9.1,4.9,16.4,12.1,22,21.7,5.5,9.6,8.3,22.7,8.3,39.3,0,27.2-8.8,47.5-26.5,61-17.7,13.5-44.2,20.3-79.7,20.3Z"/>
      </g>
    </g>
  </g>
</svg>