<?xml version="1.0" encoding="UTF-8"?>
<svg xmlns="http://www.w3.org/2000/svg" version="1.1" viewBox="0 0 4000 800">
  <defs>
    <style>
      .cls-1 {
        fill: #fff;
      }
    </style>
  </defs>
  <!-- Generator: Adobe Illustrator 28.7.5, SVG Export Plug-In . SVG Version: 1.2.0 Build 176)  -->
  <g>
    <g id="Layer_1">
      <g>
        <path class="cls-1" d="M1579.3,430.2c-31,4-33,7-33,36.5v42c0,17.5.5,34,3,47.5-31,7-71.5,18-113.5,18-113.5,0-182.5-70.5-182.5-171s86-168.5,186-168.5,88.5,10,104,12.5c1,18.5,3.5,49,7.5,80.5l-15,3c-12-42.5-26.5-60.5-58-71-11.5-4-32-6.5-46.5-6.5-76.5,0-126,52.5-126,144s41,158.5,138,158.5,32.5-3.5,42.5-8.5c10.5-6,17-11.5,17-32v-41c0-36.5-4-40.5-52-44v-14.5h128.5v14.5Z"/>
        <path class="cls-1" d="M1610.7,566.7v-14c31.5-3,35-5.5,35-39.5v-103c0-31-1.5-33-31.5-38v-12c26-4.5,49.5-11,71-20v173c0,34,3.5,36.5,36,39.5v14h-110.5ZM1662.7,291.2c-14,0-26.5-12.5-26.5-26.5s12.5-27.5,27-27.5,25.5,11.5,25.5,27.5-11.5,26.5-26,26.5Z"/>
        <path class="cls-1" d="M1841.7,566.2c-8.5,4.5-16.5,6.5-21.5,6.5-32,0-49-19.5-49-59.5v-145.5h-34.5l-2-6,13.5-14.5h23v-42c9.5-10,24-23,33.5-33l7.5,1c-1,21-1.5,50-1.5,74h57c4.5,5,3,16-3,20.5h-54v128c0,40.5,16,48,29,48s23.5-4.5,30.5-8l4.5,13-33,17.5Z"/>
        <path class="cls-1" d="M2244.2,255.7c-41.5,4-45.5,6.5-45.5,48.5v200.5c0,42,4.5,43.5,45.5,48v14h-134v-14c41.5-5,45.5-6,45.5-48v-100h-171v100c0,41.5,4,43,45,48v14h-133.5v-14c40.5-4.5,45-6,45-48v-200.5c0-42-4.5-44.5-45-48.5v-14h133.5v14c-40,3.5-45,7-45,48.5v79.5h171v-79.5c0-41.5-5.5-45-45.5-48.5v-14h134v14Z"/>
        <path class="cls-1" d="M2505.2,555.2c-24,3.5-51,10-76.5,17.5v-38.5c-27,22.5-49,38.5-76.5,38.5s-62.5-20.5-62.5-75v-97c0-27-4-30-16.5-32.5l-14-2.5v-13c21.5-1,54.5-6,71.5-9-1.5,16-1.5,40-1.5,73v68c0,44,23,56.5,45.5,56.5s37-8,54-24v-116.5c0-27-6-30.5-23-33l-16-2v-13c32-1.5,67-7,78.5-9v167.5c0,25,4,28.5,23,29.5l14,.5v14Z"/>
        <path class="cls-1" d="M2630.2,346.2c8.5-3.5,16-5,22-5,53.5,0,98.5,46.5,98.5,106s-58,126-123.5,125.5c-21.5,0-49.5-5-77-18v-281c0-31-1.5-34-33.5-36.5v-13c23.5-3,54.5-10.5,73-17v156.5l40.5-17.5ZM2589.8,508.7c0,8,.5,12.5,2.5,17.5,6,12.5,25.5,27,49.5,27,43,0,64.5-37,64.5-93.5s-34.5-90.5-76-90.5-31,4.5-40.5,9.5v130Z"/>
      </g>
    </g>
  </g>
</svg>