<?xml version="1.0" encoding="UTF-8"?>
<svg xmlns="http://www.w3.org/2000/svg" version="1.1" viewBox="0 0 4000 800">
  <defs>
    <style>
      .cls-1 {
        fill: #fff;
      }

      .cls-2 {
        fill: none;
        stroke: #f7df1e;
        stroke-linecap: round;
        stroke-linejoin: round;
        stroke-width: 66.7px;
      }

      .cls-3 {
        display: none;
      }
    </style>
  </defs>
  <!-- Generator: Adobe Illustrator 28.7.5, SVG Export Plug-In . SVG Version: 1.2.0 Build 176)  -->
  <g>
    <g id="Layer_1">
      <g id="SVGRepo_iconCarrier" class="cls-3">
        <path class="cls-2" d="M560.5,566.7l166.7-166.7-166.7-166.7M227.2,233.3L60.5,400l166.7,166.7M460.5,100l-133.3,600"/>
      </g>
      <g>
        <g>
          <path class="cls-1" d="M1765.8,381.7h123v62c0,26.7-5.2,50-15.5,69.9-10.3,19.9-24.8,35.4-43.3,46.4s-40.4,16.5-65.4,16.5-47.3-5.2-66.2-15.5c-18.9-10.3-33.5-24.9-43.9-43.7-10.4-18.8-15.6-40.7-15.6-65.8v-104.7c0-26.7,5.2-50,15.5-69.8,10.3-19.9,24.8-35.3,43.3-46.3s40.4-16.5,65.4-16.5,39.5,4.4,56.5,13.2c17,8.8,31.3,21.1,42.8,36.9,11.6,15.8,19.4,34.3,23.4,55.4h-54c-4.6-18.4-13.4-32.5-26.6-42.2s-27.3-14.6-42.2-14.6c-22.1,0-39.9,7.7-53.2,23.1-13.3,15.4-20,35.7-20,60.9v104.7c0,23.1,6.8,41.6,20.5,55.5s31.7,20.9,54.2,20.9,39.9-7.3,53.2-22c13.3-14.6,20-35.1,20-61.3v-15.4h-72v-47.6Z"/>
          <path class="cls-1" d="M1964.6,267.6v-49.8h49.8v49.8h-49.8ZM1964.6,572.8v-253.4h49.8v253.4h-49.8Z"/>
          <path class="cls-1" d="M2070.5,364.3v-44.9h114.3v44.9h-114.3ZM2156,574c-20.8,0-35.9-5.8-45.3-17.3-9.4-11.6-14-28.2-14-49.8V245.7h49.8v261.7c0,6,1.2,10.7,3.7,14.2s6,5.1,10.7,5.1h23.9v47.4h-28.8Z"/>
          <path class="cls-1" d="M2258,572.8V217.8h49.8v355h-49.8ZM2289,421.7v-47.4h197v47.4h-197ZM2459.7,572.8V217.8h49.8v355h-49.8Z"/>
          <path class="cls-1" d="M2642.3,319.4v154.1c0,17.7,4.5,31.5,13.6,41.1,9,9.7,21.8,14.5,38.2,14.5s29.1-4.4,38-13.1c8.9-8.7,13.3-21,13.3-36.7l3.4,53c-4.6,11.4-12.5,21.6-23.9,30.6-11.4,9-26.3,13.5-44.7,13.5-28,0-49.6-9-64.8-27-15.2-18-22.8-43.3-22.8-76v-154.1h49.8ZM2745.3,572.8v-253.4h49.6v253.4h-49.6Z"/>
          <path class="cls-1" d="M2870.6,572.8V217.8h49.8v355h-49.8ZM2984.1,576.5c-15.8,0-29.5-3.8-41.3-11.4s-20.3-18.3-25.9-32.1l3.4-53c0,10.9,2,20.2,5.9,27.8,3.9,7.7,9.6,13.5,17,17.6,7.4,4.1,16.4,6.1,27,6.1,16.4,0,29.2-5,38.2-15s13.5-24.1,13.5-42.4v-54.9c0-18.6-4.5-33-13.5-43.2s-21.8-15.4-38.2-15.4-19.6,2-27,5.9c-7.4,3.9-13.1,9.6-17,17.1-3.9,7.5-5.9,16.6-5.9,27.3l-5.1-48.8c7.6-14.8,17.7-26.2,30-34.3,12.4-8.1,26.1-12.1,41.3-12.1,27.2,0,48.2,9,63,27,14.8,18,22.2,43.4,22.2,76.3v55.2c0,32.4-7.7,57.5-22.9,75.4-15.3,17.9-36.9,26.9-64.7,26.9Z"/>
        </g>
        <path class="cls-1" d="M1215.1,89.3c-176,0-318.6,142.7-318.6,318.6s91.3,260.2,217.9,302.3c15.9,3,21.8-6.9,21.8-15.3s-.3-27.6-.4-54.2c-88.6,19.2-107.3-42.7-107.3-42.7-14.5-36.8-35.4-46.6-35.4-46.6-28.9-19.8,2.2-19.4,2.2-19.4,32,2.2,48.8,32.8,48.8,32.8,28.4,48.7,74.6,34.6,92.8,26.5,2.9-20.6,11.1-34.6,20.2-42.6-70.8-8-145.1-35.4-145.1-157.4s12.3-63.2,32.8-85.5c-3.6-8-14.3-40.4,2.8-84.3,0,0,26.7-8.5,87.6,32.7,25.5-7.1,52.6-10.6,79.7-10.8,27.1.2,54.2,3.7,79.7,10.8,60.5-41.2,87.2-32.7,87.2-32.7,17.1,43.9,6.4,76.3,3.2,84.3,20.3,22.3,32.7,50.7,32.7,85.5,0,122.4-74.5,149.3-145.4,157.2,11.2,9.6,21.5,29.1,21.5,58.9,0,42.6-.4,76.9-.4,87.2s5.6,18.3,21.9,15.1c127.5-41.8,218.7-161.3,218.7-301.9s-142.7-318.6-318.6-318.6"/>
      </g>
    </g>
  </g>
</svg>