<?xml version="1.0" encoding="UTF-8"?>
<svg xmlns="http://www.w3.org/2000/svg" version="1.1" viewBox="0 0 5000 800">
  <defs>
    <style>
      .cls-1, .cls-2 {
        fill: #fff;
      }

      .cls-2 {
        fill-rule: evenodd;
      }
    </style>
  </defs>
  <!-- Generator: Adobe Illustrator 28.7.5, SVG Export Plug-In . SVG Version: 1.2.0 Build 176)  -->
  <g>
    <g id="Layer_1">
      <g id="Page-1">
        <g id="Dribbble-Light-Preview">
          <g id="icons">
            <path id="github-_x5B__x23_142_x5D_" class="cls-2" d="M1331.3,0C1552.2,0,1731.3,183.6,1731.3,410.1s-114.5,334.8-273.3,389.1c-20.3,4-27.5-8.8-27.5-19.7s.5-57.7.5-112.6-12.8-63.2-27.2-75.9c89.1-10.2,182.7-44.8,182.7-202.4s-15.5-81.3-41.2-110.1c4.2-10.4,17.9-52.1-3.9-108.6,0,0-33.5-11-109.9,42.1-32-9.1-66.2-13.7-100.2-13.8-34,.2-68.2,4.7-100.1,13.8-76.4-53-110-42.1-110-42.1-21.7,56.5-8,98.2-3.9,108.6-25.6,28.7-41.2,65.3-41.2,110.1,0,157.1,93.4,192.3,182.2,202.7-11.4,10.2-21.8,28.3-25.4,54.8-22.8,10.5-80.7,28.6-116.4-34.1,0,0-21.2-39.4-61.3-42.3,0,0-39-.5-2.7,24.9,0,0,26.2,12.6,44.4,60,0,0,23.5,73.2,134.8,48.4.2,34.3.6,66.6.6,76.3s-7.4,23.5-27.3,19.7c-159-54.2-273.6-207.9-273.6-389.2S1110.4,0,1331.3,0"/>
          </g>
        </g>
      </g>
      <g>
        <path class="cls-1" d="M2109.8,379.5h184.6v93c0,40-7.8,75-23.3,104.9-15.5,29.9-37.2,53.1-65,69.6-27.8,16.5-60.6,24.7-98.1,24.7s-70.9-7.7-99.2-23.3c-28.3-15.5-50.3-37.4-65.9-65.6-15.6-28.2-23.4-61.1-23.4-98.7v-157.1c0-40,7.7-74.9,23.3-104.7,15.5-29.8,37.2-52.9,65-69.4s60.5-24.7,98.1-24.7,59.3,6.6,84.8,19.8c25.5,13.2,46.9,31.6,64.3,55.3,17.3,23.7,29.1,51.4,35.2,83.1h-80.9c-6.8-27.6-20.1-48.7-39.9-63.4s-40.9-22-63.4-22c-33.2,0-59.8,11.5-79.8,34.6-20,23.1-30,53.5-30,91.4v157.1c0,34.7,10.3,62.4,30.8,83.3,20.5,20.9,47.6,31.3,81.3,31.3s59.8-11,79.8-33c20-22,30-52.6,30-91.9v-23.1h-108v-71.4Z"/>
        <path class="cls-1" d="M2407.9,208.5v-74.7h74.7v74.7h-74.7ZM2407.9,666.2v-380.1h74.7v380.1h-74.7Z"/>
        <path class="cls-1" d="M2566.9,353.5v-67.4h171.4v67.4h-171.4ZM2695,668.1c-31.3,0-53.9-8.7-67.9-26-14-17.3-21.1-42.2-21.1-74.7V175.5h74.7v392.6c0,9,1.8,16.1,5.5,21.2s9,7.7,16.1,7.7h35.9v71h-43.2Z"/>
        <path class="cls-1" d="M2848.1,666.2V133.8h74.7v532.5h-74.7ZM2894.6,439.5v-71h295.5v71h-295.5ZM3150.6,666.2V133.8h74.7v532.5h-74.7Z"/>
        <path class="cls-1" d="M3424.5,286.1v231.1c0,26.6,6.8,47.2,20.3,61.7,13.6,14.5,32.7,21.8,57.3,21.8s43.6-6.5,56.9-19.6c13.3-13.1,20-31.4,20-55.1l5.1,79.5c-6.8,17.1-18.8,32.4-35.9,46-17.1,13.6-39.4,20.3-67,20.3-42,0-74.4-13.5-97.2-40.5-22.8-27-34.2-65-34.2-114.1v-231.1h74.7ZM3579.1,666.2v-380.1h74.3v380.1h-74.3Z"/>
        <path class="cls-1" d="M3766.9,666.2V133.8h74.7v532.5h-74.7ZM3937.2,671.7c-23.7,0-44.3-5.7-61.9-17-17.6-11.4-30.5-27.4-38.8-48.2l5.1-79.5c0,16.4,2.9,30.3,8.8,41.7,5.9,11.5,14.3,20.3,25.5,26.4,11.1,6.1,24.6,9.2,40.5,9.2,24.7,0,43.8-7.5,57.3-22.5,13.5-15,20.3-36.2,20.3-63.5v-82.4c0-27.8-6.8-49.4-20.3-64.8-13.6-15.4-32.7-23.1-57.3-23.1s-29.4,2.9-40.5,8.8c-11.1,5.9-19.6,14.4-25.5,25.6-5.9,11.2-8.8,24.9-8.8,41l-7.7-73.2c11.5-22.2,26.5-39.4,45-51.5,18.6-12.1,39.2-18.1,61.9-18.1,40.8,0,72.3,13.5,94.5,40.5,22.2,27,33.3,65.1,33.3,114.4v82.8c0,48.6-11.5,86.3-34.4,113.2-23,26.9-55.3,40.3-97,40.3Z"/>
      </g>
    </g>
  </g>
</svg>