<?xml version="1.0" encoding="UTF-8"?>
<svg xmlns="http://www.w3.org/2000/svg" version="1.1" viewBox="0 0 4000 800">
  <defs>
    <style>
      .cls-1 {
        fill: #fff;
      }
    </style>
  </defs>
  <!-- Generator: Adobe Illustrator 28.7.5, SVG Export Plug-In . SVG Version: 1.2.0 Build 176)  -->
  <g>
    <g id="Layer_1">
      <g>
        <path class="cls-1" d="M1171.5,430.2c-31,4-33,7-33,36.5v42c0,17.5.5,34,3,47.5-31,7-71.5,18-113.5,18-113.5,0-182.5-70.5-182.5-171s86-168.5,186-168.5,88.5,10,104,12.5c1,18.5,3.5,49,7.5,80.5l-15,3c-12-42.5-26.5-60.5-58-71-11.5-4-32-6.5-46.5-6.5-76.5,0-126,52.5-126,144s41,158.5,138,158.5,32.5-3.5,42.5-8.5c10.5-6,17-11.5,17-32v-41c0-36.5-4-40.5-52-44v-14.5h128.5v14.5Z"/>
        <path class="cls-1" d="M1318.5,566.7h-115v-14c31.5-3,34.5-5.5,34.5-38v-104c0-33-2-34.5-31-38v-12.5c24.5-4,47-10,70.5-20.5v55c17.5-26,38.5-53.5,63.5-53.5s29,11.5,29,24-8,22.5-17,27.5c-5,3-9,2.5-13-1-7.5-7.5-13.5-12.5-22.5-12.5s-29,15.5-40,41v94c0,33,2.5,35.5,41,38.5v14Z"/>
        <path class="cls-1" d="M1568.5,524.2c-32,40-67,48.5-83,48.5-61,0-98-50-98-107.5s12-65.5,32.5-87.5c21-23.5,48.5-36.5,74.5-36.5,43.5,0,76.5,37.5,76.5,77.5-.5,10-2,14.5-10,16.5-10,2-74,6.5-133.5,8.5-1.5,67,39.5,94.5,75,94.5s39.5-8.5,58-25.5l8,11.5ZM1482.5,360.2c-23,0-45.5,21.5-52.5,62,28,0,56,0,85.5-1.5,9,0,12-2.5,12-10,.5-26.5-17-50.5-45-50.5Z"/>
        <path class="cls-1" d="M1764,572.7c-7.5,0-18.5-4-23.5-9.5-6.5-6.5-9.5-13.5-12-22.5-20,13.5-44.5,32-60,32-35.5,0-61-29.5-61-61.5s13.5-40.5,41-50c30.5-10.5,68-23.5,79-32.5v-10c0-35.5-18-56-44-56s-18.5,5.5-23.5,11.5c-5.5,7-9,18-13.5,32.5-2.5,8-7,11.5-14.5,11.5s-22-10-22-22,6.5-13,16.5-20c14.5-10.5,43.5-29,72-35,15,0,30.5,4.5,42,13.5,17.5,15,25.5,32,25.5,58v96.5c0,23,8.5,30,17.5,30s12.5-2.5,18-5.5l5,14-42.5,25ZM1727.5,446.2c-11,5.5-35,16-46.5,21-19,8.5-30.5,18-30.5,36.5,0,26.5,20,38.5,36,38.5s31-8,41-18v-78Z"/>
        <path class="cls-1" d="M1954,406.7c-9-29-22-49-52.5-49s-31,12.5-31,32.5,14.5,31.5,42.5,44.5c43,20.5,64.5,35.5,64.5,68.5s-42,69.5-81.5,69.5-49-8-59.5-14c-2.5-14.5-7-42-9-58.5l14.5-2.5c9,32,26.5,58,61.5,58s35-13,35-34-13.5-34-40-47c-35-17-63.5-33-63.5-69s31-64.5,78-64.5,38,5,48,6.5c1.5,12,5,43.5,7.5,55.5l-14.5,3.5Z"/>
        <path class="cls-1" d="M2234,360.7c-26,4-31.5,8-44,36.5-12.5,28-26,62-60.5,149-32.5,80-41.5,111-49.5,137-3,10.5-8.5,13-15,13-16,0-30.5-11.5-30.5-24s3.5-11,11-17.5c16-12.5,27.5-24.5,33.5-37,10.5-21,18-38.5,20.5-45,2-7.5,2-12-1-20.5-19.5-57-46.5-118.5-61.5-154.5-11-27.5-15.5-33.5-43-37v-13.5h101v13.5c-23,3.5-25.5,8.5-19,27l48.5,123c14-34.5,34-90,44.5-121.5,6-19,2.5-24.5-26.5-28.5v-13.5h91.5v13.5Z"/>
        <path class="cls-1" d="M2455,319.7c-4.5-14-8.5-26-15.5-37-9.5-17-17-21-45-21h-53.5c-14.5,0-16,1.5-16,16v115.5h62c36,0,38.5-6,46-41h15v104.5h-15.5c-6.5-35-10-43-45.5-43h-62v89.5c0,43.5,5,45.5,50.5,49.5v14h-139v-14c40.5-3,45-6.5,45-49.5v-198c0-43.5-5-45.5-45-49.5v-14h158.5c45,0,62-.5,70.5-1,.5,18,2.5,53,5,77l-15.5,2Z"/>
        <path class="cls-1" d="M2613,341.2c62.5,0,109,47.5,109,112s-60,119.5-109,119.5-111-55.5-111-111.5c0-81.5,63.5-120,111-120ZM2607,358.2c-30.5,0-58,29.5-58,87.5s28,109.5,69,109.5,57-22.5,57-91-24-106-68-106Z"/>
        <path class="cls-1" d="M2869.5,566.7h-115v-14c31.5-3,34.5-5.5,34.5-38v-104c0-33-2-34.5-31-38v-12.5c24.5-4,47-10,70.5-20.5v55c17.5-26,38.5-53.5,63.5-53.5s29,11.5,29,24-8,22.5-17,27.5c-5,3-9,2.5-13-1-7.5-7.5-13.5-12.5-22.5-12.5s-29,15.5-40,41v94c0,33,2.5,35.5,41,38.5v14Z"/>
        <path class="cls-1" d="M3177.5,566.7c-27,0-56.5.5-67,1-3-3.5-81.5-96.5-84.5-99.5-7-8-10-10.5-14.5-10.5s-6,0-9,1v55.5c0,33.5,2.5,35.5,35,38.5v14h-110.5v-14c33.5-3,36-6.5,36-38.5v-239c0-32.5-3.5-33.5-34.5-38v-13c26-2.5,56-10,74-17v238.5c15-3.5,24.5-9.5,32-17.5,11.5-11.5,30-34,38.5-46.5,10.5-14.5,6.5-18.5-17.5-20.5v-14l103-4.5v13.5c-35,5.5-45,9.5-66.5,32-9.5,10-32,35.5-42.5,48.5,10,14,61,72,77.5,89.5,24,24,31,25.5,50.5,26.5v14Z"/>
      </g>
    </g>
  </g>
</svg>