<?xml version="1.0" encoding="UTF-8"?>
<svg xmlns="http://www.w3.org/2000/svg" version="1.1" viewBox="0 0 4000 800">
  <defs>
    <style>
      .cls-1 {
        fill: #fff;
      }

      .cls-2 {
        display: none;
      }

      .cls-3 {
        stroke: #f7df1e;
        stroke-linecap: round;
        stroke-linejoin: round;
        stroke-width: 66.7px;
      }
    </style>
  </defs>
  <!-- Generator: Adobe Illustrator 28.7.5, SVG Export Plug-In . SVG Version: 1.2.0 Build 176)  -->
  <g>
    <g id="Layer_1">
      <g id="SVGRepo_iconCarrier" class="cls-2">
        <path class="cls-3" d="M560.5,566.7l166.7-166.7-166.7-166.7M227.2,233.3L60.5,400l166.7,166.7M460.5,100l-133.3,600"/>
      </g>
      <g>
        <g>
          <path class="cls-1" d="M1314.2,375.5h123v62c0,26.7-5.2,50-15.5,69.9s-24.8,35.4-43.3,46.4-40.4,16.5-65.4,16.5-47.3-5.2-66.2-15.5c-18.9-10.3-33.5-24.9-43.9-43.7s-15.6-40.7-15.6-65.8v-104.7c0-26.7,5.2-50,15.5-69.8,10.3-19.9,24.8-35.3,43.3-46.3s40.4-16.5,65.4-16.5,39.5,4.4,56.5,13.2,31.3,21.1,42.8,36.9c11.6,15.8,19.4,34.3,23.4,55.4h-54c-4.6-18.4-13.4-32.5-26.6-42.2s-27.3-14.6-42.2-14.6c-22.1,0-39.9,7.7-53.2,23.1-13.3,15.4-20,35.7-20,60.9v104.7c0,23.1,6.8,41.6,20.5,55.5,13.7,13.9,31.7,20.9,54.2,20.9s39.9-7.3,53.2-22c13.3-14.6,20-35.1,20-61.3v-15.4h-72v-47.6h0Z"/>
          <path class="cls-1" d="M1513,566.7v-253.4h49.8v253.4h-49.8ZM1652.4,373.3c-4.4-5.4-9.9-9.4-16.6-12.2-6.7-2.8-14.4-4.2-23.2-4.2-15.8,0-28,4.4-36.7,13.1s-13.1,20.8-13.1,36.3l-5.1-48.8c7.6-15,17.7-26.7,30.2-35.2s26.2-12.7,41.1-12.7,22,1.7,31.4,5,17.5,8.3,24.5,14.8l-32.5,43.9h0Z"/>
          <path class="cls-1" d="M1825.2,570.3c-35.3,0-62.7-9.8-82-29.5-19.4-19.7-29.1-47.7-29.1-84v-28.6c0-37.8,9.3-67,28-87.6,18.6-20.7,44.9-31,78.7-31s56.6,11.7,74.1,35.2c17.5,23.4,26.2,56.3,26.2,98.6v16.6h-170.9v-40h123.5c-1.5-20.5-6.8-36.5-16-48.1s-21.5-17.3-37-17.3-33.3,6.2-43.7,18.6c-10.4,12.4-15.6,29.9-15.6,52.5v32.2c0,21,5.6,37.1,16.7,48.3,11.1,11.2,26.8,16.8,47,16.8s20.1-2,30-6.1,18.8-9.8,26.6-17.1l32.7,32.7c-12.5,12-26.6,21.4-42.2,28s-31.3,9.9-47.1,9.9h.1Z"/>
          <path class="cls-1" d="M2070.6,570.3c-31.1,0-54.4-6.4-69.9-19.3-15.5-12.9-23.3-32.6-23.3-59.1s7.1-44.1,21.4-56.5c14.2-12.5,35.6-18.7,64.1-18.7h72l3.4,40h-75.2c-12.9,0-22.5,2.9-29.1,8.7-6.5,5.8-9.8,14.6-9.8,26.5s4.3,22.4,12.9,28.6,21.6,9.3,38.8,9.3,33-2,42.5-6.1c9.4-4.1,14.2-10.4,14.2-19l5.1,35.6c-4.4,6.8-9.8,12.5-16.4,16.8-6.5,4.4-14,7.7-22.3,9.9-8.4,2.2-17.9,3.3-28.4,3.3ZM2132.6,566.7v-160.6c0-16.6-4.4-29.5-13.3-38.7-8.9-9.2-21.4-13.8-37.7-13.8s-19.7,1.5-29.4,4.5c-9.7,3-18.4,7.4-26,13.1l-36.4-24.9c9.6-11.6,22.3-20.5,38-27,15.7-6.4,33.2-9.6,52.4-9.6,31.7,0,56.3,8.2,73.7,24.7,17.4,16.4,26.1,39.6,26.1,69.6v162.8h-47.4Z"/>
          <path class="cls-1" d="M2345.2,570.3c-22.5,0-42.8-3.3-61.2-9.9s-34.7-16.5-49.2-29.7l29.5-36.4c13.8,10.4,27.5,18.2,40.9,23.4s26.7,7.8,39.9,7.8c19.7,0,34.5-3.1,44.3-9.2,9.8-6.1,14.8-15.3,14.8-27.5s-3.3-16.1-9.9-20-15.2-6.5-25.9-7.7-22.1-2.2-34.3-3.1c-10.3-.8-20.4-2.1-30.5-3.8-10.1-1.7-19.3-4.8-27.6-9.3s-14.9-11.1-19.9-19.9-7.4-20.6-7.4-35.4c0-26.9,8.2-47,24.7-60.3,16.4-13.3,40.9-20,73.5-20s38.3,2.7,55.4,8.1,33.1,13.6,48.1,24.7l-30,36.4c-12.7-8.1-25.2-14.2-37.5-18.3-12.3-4.1-24.3-6.1-36-6.1-16.9,0-29.6,2.9-38.1,8.7-8.5,5.8-12.7,14.4-12.7,26s2.9,13.1,8.8,16.5c5.9,3.3,13.6,5.5,23.2,6.5,9.6,1,19.9,1.9,31,2.7,10.6.7,21.3,1.8,32.1,3.5s20.8,5,29.9,9.9c9.1,4.9,16.4,12.1,22,21.7,5.5,9.6,8.3,22.7,8.3,39.3,0,27.2-8.8,47.5-26.5,61s-44.2,20.3-79.7,20.3h0Z"/>
          <path class="cls-1" d="M2581.8,587.4l-101.1-274.2h50.8l77.9,220.2-27.6,54h0ZM2654.3,313.2h50.8l-107.9,312.7c-6,17.4-14.7,29.5-26.1,36.3-11.4,6.8-27,10.1-46.9,10.1h-10v-47.9h10c9.3,0,16.6-1.9,22.1-5.6,5.5-3.7,10.2-10.2,14.3-19.3l93.8-286.4h-.1Z"/>
          <path class="cls-1" d="M2729.5,355.7v-42.5h126.7v42.5h-126.7ZM2756.4,566.7v-287.8c0-22.3,5.1-39.1,15.4-50.3s26.2-16.8,47.9-16.8h36.6v47.4h-35.6c-5,0-8.7,1.9-11,5.7-2.3,3.8-3.4,8.3-3.4,13.5v288.3h-49.9Z"/>
          <path class="cls-1" d="M2997.3,570.3c-33.2,0-58.9-9.6-77.1-28.9-18.2-19.3-27.3-46.4-27.3-81.4v-41.3c0-34.7,9.1-61.5,27.3-80.6,18.2-19,43.9-28.6,77.1-28.6s58.9,9.5,77.1,28.6c18.2,19,27.3,45.9,27.3,80.6v42c0,34.8-9.1,61.8-27.3,80.9s-43.9,28.7-77.1,28.7ZM2997.3,523c17.4,0,30.9-5.5,40.4-16.4s14.3-26.2,14.3-45.9v-42c0-19.7-4.8-34.9-14.3-45.7s-23-16.1-40.4-16.1-30.7,5.4-40.3,16.1-14.4,26-14.4,45.7v42c0,19.7,4.8,35,14.4,45.9,9.6,10.9,23,16.4,40.3,16.4Z"/>
          <path class="cls-1" d="M3172.6,566.7v-253.4h49.8v253.4h-49.8ZM3312,373.3c-4.4-5.4-9.9-9.4-16.6-12.2-6.7-2.8-14.4-4.2-23.2-4.2-15.8,0-28,4.4-36.7,13.1s-13.1,20.8-13.1,36.3l-5.1-48.8c7.6-15,17.7-26.7,30.2-35.2s26.2-12.7,41.1-12.7,22,1.7,31.4,5,17.5,8.3,24.5,14.8l-32.5,43.9h0Z"/>
          <path class="cls-1" d="M3386,566.7V211.7h49.8v355h-49.8ZM3404.3,529.6l3.2-59.1,130.4-157.2h58.6l-192.1,216.3h0ZM3554.7,566.7l-88.4-146.2,32-33.2,110.6,179.4h-54.2Z"/>
        </g>
        <path class="cls-1" d="M546.7,141.9c2.5-.6,5.2.1,7,2l133.7,133.7c14.3,14.3,13.4,43.6-.8,57.9l231.6,231.6c35.8,35.8-9.5,81.8-45.7,45.6l-231.6-231.6c-14.3,14.3-43.6,15.1-57.9.8l-133.7-133.6c-8-8,8-24.1,16.1-16.1l98.1,98,28.1-28.1-98.1-98.1c-8-8,8-24.1,16-16l98.1,98.1,28.2-28.1-98.1-98c-6-6,1.5-16.5,9-18h0ZM708,83.1c-175,0-316.9,141.9-316.9,316.9s141.9,316.9,316.9,316.9,316.9-141.9,316.9-316.9S883,83.1,708,83.1Z"/>
      </g>
    </g>
  </g>
</svg>