<?xml version="1.0" encoding="UTF-8"?>
<svg xmlns="http://www.w3.org/2000/svg" version="1.1" viewBox="0 0 4000 800">
  <defs>
    <style>
      .cls-1 {
        fill: #fff;
      }

      .cls-2 {
        fill: none;
        stroke: #f7df1e;
        stroke-linecap: round;
        stroke-linejoin: round;
        stroke-width: 66.7px;
      }
    </style>
  </defs>
  <!-- Generator: Adobe Illustrator 28.7.5, SVG Export Plug-In . SVG Version: 1.2.0 Build 176)  -->
  <g>
    <g id="Layer_1">
      <g>
        <g id="SVGRepo_iconCarrier">
          <path class="cls-2" d="M671,566.7l166.7-166.7-166.7-166.7M337.7,233.3l-166.7,166.7,166.7,166.7M571,100l-133.3,600"/>
        </g>
        <g id="SVGRepo_iconCarrier-2" data-name="SVGRepo_iconCarrier">
          <path class="cls-2" d="M671,566.7l166.7-166.7-166.7-166.7M337.7,233.3l-166.7,166.7,166.7,166.7M571,100l-133.3,600"/>
        </g>
      </g>
      <g>
        <path class="cls-1" d="M1258.8,566.7v-14c41-4,42.5-7,42-60.5l.5-204c-41,91.5-107,234.5-124.5,278.5h-13c-17-45.5-73.5-183-111.5-273.5-8.5,175-9,214.5-9,224,.5,28,13,32,47,35.5v14h-118.5v-14c29-3,41-9,45-36,3-22,3.5-40,16.5-222.5,2-26-3-34.5-47-38.5v-14h87l110.5,253.5,118.5-253.5h87.5v14c-43,5-48.5,9.5-47.5,44.5l2,192c2,53.5,3.5,56,47.5,60.5v14h-133Z"/>
        <path class="cls-1" d="M1414.8,566.7v-14c31.5-3,35-5.5,35-39.5v-103c0-31-1.5-33-31.5-38v-12c26-4.5,49.5-11,71-20v173c0,34,3.5,36.5,36,39.5v14h-110.5ZM1466.8,291.2c-14,0-26.5-12.5-26.5-26.5s12.5-27.5,27-27.5,25.5,11.5,25.5,27.5-11.5,26.5-26,26.5Z"/>
        <path class="cls-1" d="M1678.3,406.7c-9-29-22-49-52.5-49s-31,12.5-31,32.5,14.5,31.5,42.5,44.5c43,20.5,64.5,35.5,64.5,68.5s-42,69.5-81.5,69.5-49-8-59.5-14c-2.5-14.5-7-42-9-58.5l14.5-2.5c9,32,26.5,58,61.5,58s35-13,35-34-13.5-34-40-47c-35-17-63.5-33-63.5-69s31-64.5,78-64.5,38,5,48,6.5c1.5,12,5,43.5,7.5,55.5l-14.5,3.5Z"/>
        <path class="cls-1" d="M1925.3,521.7c-22,29-55.5,51-85.5,51-63.5,0-101-51.5-101-105s17-72.5,50.5-98c26.5-20.5,56.5-28.5,76-28.5s39,7,46.5,13.5c7,5.5,8,9,8,14.5,0,12-12.5,22.5-18,22.5s-4.5-1-9.5-5c-15.5-14-32.5-21-50.5-21-33,0-62,28-62,80-.5,69.5,47,92.5,76,92.5s38-5.5,61-27.5l8.5,11Z"/>
        <path class="cls-1" d="M2133.8,524.2c-32,40-67,48.5-83,48.5-61,0-98-50-98-107.5s12-65.5,32.5-87.5c21-23.5,48.5-36.5,74.5-36.5,43.5,0,76.5,37.5,76.5,77.5-.5,10-2,14.5-10,16.5-10,2-74,6.5-133.5,8.5-1.5,67,39.5,94.5,75,94.5s39.5-8.5,58-25.5l8,11.5ZM2047.8,360.2c-23,0-45.5,21.5-52.5,62,28,0,56,0,85.5-1.5,9,0,12-2.5,12-10,.5-26.5-17-50.5-45-50.5Z"/>
        <path class="cls-1" d="M2158.7,566.7v-14c32-3,36-5.5,36-38.5v-239.5c0-30.5-2.5-33.5-34.5-37.5v-13c27-3,58-11,74-17v307c0,33,3,35.5,35.5,38.5v14h-111Z"/>
        <path class="cls-1" d="M2291.7,566.7v-14c32-3,36-5.5,36-38.5v-239.5c0-30.5-2.5-33.5-34.5-37.5v-13c27-3,58-11,74-17v307c0,33,3,35.5,35.5,38.5v14h-111Z"/>
        <path class="cls-1" d="M2587.2,572.7c-7.5,0-18.5-4-23.5-9.5-6.5-6.5-9.5-13.5-12-22.5-20,13.5-44.5,32-60,32-35.5,0-61-29.5-61-61.5s13.5-40.5,41-50c30.5-10.5,68-23.5,79-32.5v-10c0-35.5-18-56-44-56s-18.5,5.5-23.5,11.5c-5.5,7-9,18-13.5,32.5-2.5,8-7,11.5-14.5,11.5s-22-10-22-22,6.5-13,16.5-20c14.5-10.5,43.5-29,72-35,15,0,30.5,4.5,42,13.5,17.5,15,25.5,32,25.5,58v96.5c0,23,8.5,30,17.5,30s12.5-2.5,18-5.5l5,14-42.5,25ZM2550.7,446.2c-11,5.5-35,16-46.5,21-19,8.5-30.5,18-30.5,36.5,0,26.5,20,38.5,36,38.5s31-8,41-18v-78Z"/>
        <path class="cls-1" d="M2794.2,566.7v-14c29-3,32-6.5,32-40.5v-82.5c0-35-12.5-58.5-45.5-58.5s-40,12-55.5,26v117c0,34.5,3,35.5,32.5,38.5v14h-108v-14c33-3.5,36-5.5,36-38.5v-103c0-32.5-3.5-34-30.5-38.5v-13c24.5-4,49-10.5,70-20v39.5c10-7,21-14.5,34-23,14-9,27-15,41.5-15,40,0,65,29.5,65,78v95c0,34,3,35.5,32,38.5v14h-103.5Z"/>
        <path class="cls-1" d="M3108.7,524.2c-32,40-67,48.5-83,48.5-61,0-98-50-98-107.5s12-65.5,32.5-87.5c21-23.5,48.5-36.5,74.5-36.5,43.5,0,76.5,37.5,76.5,77.5-.5,10-2,14.5-10,16.5-10,2-74,6.5-133.5,8.5-1.5,67,39.5,94.5,75,94.5s39.5-8.5,58-25.5l8,11.5ZM3022.7,360.2c-23,0-45.5,21.5-52.5,62,28,0,56,0,85.5-1.5,9,0,12-2.5,12-10,.5-26.5-17-50.5-45-50.5Z"/>
        <path class="cls-1" d="M3259.2,341.2c62.5,0,109,47.5,109,112s-60,119.5-109,119.5-111-55.5-111-111.5c0-81.5,63.5-120,111-120ZM3253.2,358.2c-30.5,0-58,29.5-58,87.5s28,109.5,69,109.5,57-22.5,57-91-24-106-68-106Z"/>
        <path class="cls-1" d="M3645.7,555.2c-24,3.5-51,10-76.5,17.5v-38.5c-27,22.5-49,38.5-76.5,38.5s-62.5-20.5-62.5-75v-97c0-27-4-30-16.5-32.5l-14-2.5v-13c21.5-1,54.5-6,71.5-9-1.5,16-1.5,40-1.5,73v68c0,44,23,56.5,45.5,56.5s37-8,54-24v-116.5c0-27-6-30.5-23-33l-16-2v-13c32-1.5,67-7,78.5-9v167.5c0,25,4,28.5,23,29.5l14,.5v14Z"/>
        <path class="cls-1" d="M3798.2,406.7c-9-29-22-49-52.5-49s-31,12.5-31,32.5,14.5,31.5,42.5,44.5c43,20.5,64.5,35.5,64.5,68.5s-42,69.5-81.5,69.5-49-8-59.5-14c-2.5-14.5-7-42-9-58.5l14.5-2.5c9,32,26.5,58,61.5,58s35-13,35-34-13.5-34-40-47c-35-17-63.5-33-63.5-69s31-64.5,78-64.5,38,5,48,6.5c1.5,12,5,43.5,7.5,55.5l-14.5,3.5Z"/>
      </g>
    </g>
  </g>
</svg>